<?xml version="1.0" standalone="no"?>
<!DOCTYPE svg PUBLIC "-//W3C//DTD SVG 20010904//EN"
 "http://www.w3.org/TR/2001/REC-SVG-20010904/DTD/svg10.dtd">
<svg version="1.0" xmlns="http://www.w3.org/2000/svg"
 width="1280.000000pt" height="720.000000pt" viewBox="0 0 1280.000000 720.000000"
 preserveAspectRatio="xMidYMid meet">

<g transform="translate(0.000000,720.000000) scale(0.100000,-0.100000)"
fill="#000000" stroke="none">
<path d="M0 3600 l0 -3600 6400 0 6400 0 0 3600 0 3600 -6400 0 -6400 0 0
-3600z m10370 0 l0 -1870 -3965 0 -3965 0 0 1870 0 1870 3965 0 3965 0 0
-1870z"/>
<path d="M2470 3595 l0 -1845 3935 0 3935 0 0 1845 0 1845 -3935 0 -3935 0 0
-1845z m3506 1200 c274 -79 469 -241 585 -489 61 -131 79 -215 79 -374 0 -225
-64 -408 -199 -568 -179 -212 -417 -324 -691 -324 -321 0 -604 162 -771 441
-131 220 -156 513 -65 763 75 206 258 403 459 496 128 60 218 79 373 79 123 1
154 -2 230 -24z m1789 -19 c61 -14 142 -35 180 -49 l70 -24 3 -201 2 -202 -28
0 c-25 0 -28 4 -41 58 -31 138 -132 275 -242 329 -103 51 -261 64 -374 32 -61
-17 -130 -93 -145 -161 -32 -141 54 -227 330 -332 52 -20 131 -50 175 -67 346
-133 500 -308 499 -569 0 -199 -97 -358 -273 -449 -125 -64 -188 -76 -401 -76
-197 0 -311 17 -491 70 -132 40 -119 10 -119 281 l0 235 26 -3 c22 -3 30 -15
63 -98 105 -268 287 -408 529 -410 161 0 285 55 347 154 27 44 30 57 30 131 0
73 -3 86 -29 125 -59 89 -132 138 -321 214 -271 109 -354 148 -428 198 -90 61
-145 121 -180 196 -30 64 -32 73 -32 187 0 118 1 121 34 183 70 129 213 231
371 267 95 22 303 13 445 -19z m1520 4 c90 -19 172 -43 248 -72 l27 -10 0
-199 0 -199 -30 0 c-26 0 -30 5 -40 43 -32 125 -71 199 -140 268 -170 170
-517 171 -607 0 -25 -49 -31 -136 -12 -174 37 -72 136 -139 294 -200 50 -19
140 -54 200 -77 192 -74 284 -129 371 -221 104 -111 149 -264 126 -429 -16
-110 -60 -198 -138 -276 -72 -73 -147 -114 -266 -146 -73 -20 -105 -23 -268
-22 -160 0 -202 4 -310 27 -69 14 -163 39 -210 54 l-85 28 -3 238 -2 238 31
-3 c29 -3 33 -8 48 -58 28 -91 100 -216 161 -282 104 -113 227 -167 380 -167
233 -1 379 104 380 273 0 91 -17 134 -80 196 -63 64 -138 103 -380 200 -349
139 -465 231 -521 411 -47 152 1 324 121 433 82 73 195 128 310 150 58 11 298
-4 395 -24z m-5090 -10 c82 -20 194 -79 242 -127 127 -126 128 -315 3 -455
-61 -69 -130 -114 -229 -149 -70 -26 -73 -28 -39 -28 57 -1 217 -56 273 -94
68 -46 122 -108 153 -176 24 -50 27 -68 27 -166 -1 -145 -22 -202 -109 -290
-119 -120 -268 -178 -499 -195 -78 -6 -326 -10 -552 -8 l-410 3 -3 31 c-3 31
-3 31 54 37 39 4 64 13 80 28 l24 22 0 738 0 738 -26 20 c-19 15 -41 21 -74
21 -48 0 -48 0 -45 33 2 17 3 33 4 35 1 2 243 2 539 -1 379 -3 552 -8 587 -17z
m1612 -2015 c78 -33 113 -91 113 -188 0 -81 -30 -142 -86 -175 -33 -19 -51
-22 -111 -20 -87 4 -117 22 -152 92 -46 91 -26 207 45 264 55 44 126 54 191
27z m2130 -5 c75 -34 117 -141 93 -239 -22 -94 -85 -144 -180 -144 -113 0
-181 64 -188 178 -7 103 30 178 103 211 43 19 123 17 172 -6z m810 1 c38 -18
73 -61 73 -91 0 -5 -17 -10 -37 -10 -32 0 -41 5 -55 30 -21 37 -60 48 -94 25
-18 -12 -24 -23 -22 -43 3 -24 12 -30 88 -57 106 -38 109 -40 126 -80 18 -45
3 -97 -39 -127 -43 -31 -149 -38 -201 -13 -38 18 -66 58 -66 95 0 17 6 20 40
20 33 0 40 -3 40 -19 0 -26 46 -61 79 -61 29 0 71 32 71 55 0 29 -34 49 -129
75 -54 14 -101 59 -101 95 0 96 123 153 227 106z m810 0 c43 -20 63 -45 63
-80 0 -18 -6 -21 -39 -21 -33 0 -40 4 -43 22 -2 12 -15 29 -29 37 -53 30 -121
-27 -80 -68 9 -9 49 -27 88 -39 86 -27 123 -60 123 -109 0 -78 -57 -123 -155
-123 -91 0 -148 37 -157 100 -3 23 1 25 40 28 36 3 42 0 42 -17 0 -25 24 -49
56 -57 32 -8 81 12 87 36 9 33 -21 59 -95 81 -114 34 -151 86 -112 160 18 36
83 69 134 69 19 0 54 -9 77 -19z m-6337 -66 l0 -75 78 0 77 0 0 72 0 73 43 3
42 3 0 -190 0 -191 -43 0 -42 0 3 80 4 80 -81 0 -81 0 0 -80 0 -80 -42 0 -43
0 3 190 3 190 39 0 40 0 0 -75z m802 -71 c3 -139 4 -147 27 -165 32 -26 77
-24 106 6 24 23 25 29 25 165 l0 140 45 0 45 0 0 -138 c0 -156 -11 -192 -71
-227 -48 -28 -157 -28 -195 1 -63 47 -69 63 -72 220 l-4 144 45 0 46 0 3 -146z
m998 125 c36 -21 60 -54 60 -84 0 -11 -12 -15 -40 -15 -22 0 -40 5 -40 10 0 6
-9 19 -20 30 -29 29 -91 27 -126 -4 -24 -20 -28 -33 -32 -88 -6 -90 14 -133
66 -149 23 -6 56 -9 76 -5 34 7 36 9 36 46 l0 40 -41 0 c-38 0 -40 1 -37 28 3
27 4 27 81 30 l77 3 0 -91 c0 -89 0 -91 -27 -102 -16 -6 -66 -12 -113 -12 -69
-1 -92 3 -120 20 -69 40 -99 116 -85 215 8 54 38 99 90 130 44 27 145 26 195
-2z m2085 7 c64 -27 77 -106 24 -150 -21 -18 -26 -26 -14 -26 9 0 27 -12 40
-26 29 -31 33 -79 9 -112 -30 -43 -71 -55 -189 -56 l-110 -1 -3 193 -2 192
105 0 c68 0 118 -5 140 -14z"/>
<path d="M5690 4749 c-204 -41 -344 -258 -395 -610 -20 -143 -19 -287 5 -444
43 -289 142 -470 298 -547 60 -30 75 -33 152 -33 75 1 93 4 152 33 43 21 83
50 115 85 232 255 272 888 80 1262 -57 111 -160 215 -237 238 -77 23 -118 27
-170 16z"/>
<path d="M3600 4381 l0 -341 130 0 c108 0 139 4 187 21 69 27 145 94 181 164
24 45 27 61 27 155 0 101 -1 108 -34 168 -37 69 -83 110 -158 145 -41 18 -70
22 -190 25 l-143 4 0 -341z"/>
<path d="M3600 3566 l0 -406 156 0 c155 0 155 0 227 34 168 78 259 254 228
444 -22 135 -95 238 -209 294 -65 32 -68 33 -234 36 l-168 4 0 -406z"/>
<path d="M5693 2700 c-35 -14 -53 -61 -53 -140 0 -66 2 -74 29 -101 38 -37 88
-39 128 -5 26 23 28 29 28 104 0 87 -13 123 -52 141 -28 13 -50 13 -80 1z"/>
<path d="M7802 2700 c-35 -15 -55 -73 -50 -152 5 -87 30 -118 95 -118 55 0 89
33 99 95 19 129 -50 212 -144 175z"/>
<path d="M6950 2650 l0 -50 43 0 c66 0 100 38 71 79 -12 17 -26 21 -65 21
l-49 0 0 -50z"/>
<path d="M6950 2487 l0 -53 61 6 c74 7 95 31 69 81 -9 15 -22 19 -70 19 l-60
0 0 -53z"/>
</g>
</svg>
