<?xml version="1.0" standalone="no"?>
<!DOCTYPE svg PUBLIC "-//W3C//DTD SVG 20010904//EN"
 "http://www.w3.org/TR/2001/REC-SVG-20010904/DTD/svg10.dtd">
<svg version="1.0" xmlns="http://www.w3.org/2000/svg"
 width="768.000000pt" height="767.000000pt" viewBox="0 0 768.000000 767.000000"
 preserveAspectRatio="xMidYMid meet">

<g transform="translate(0.000000,767.000000) scale(0.100000,-0.100000)"
fill="#000000" stroke="none">
<path d="M0 3835 l0 -3835 3840 0 3840 0 0 3835 0 3835 -3840 0 -3840 0 0
-3835z m3394 1256 c9 -7 25 -11 36 -8 12 3 18 1 14 -5 -3 -5 2 -9 12 -8 33 4
45 0 39 -11 -4 -6 -1 -9 6 -8 8 2 34 -8 59 -20 38 -20 49 -22 74 -12 23 8 33
8 41 -1 7 -8 6 -9 -2 -4 -7 4 -19 3 -26 -1 -11 -6 -9 -13 11 -33 13 -14 21
-18 16 -10 -4 8 19 -8 51 -37 48 -42 62 -49 74 -40 12 10 13 8 6 -12 -6 -20
-4 -23 9 -18 10 4 15 3 12 -2 -3 -4 2 -17 10 -27 14 -17 15 -17 10 -1 -5 14
-2 16 13 8 23 -13 46 -41 33 -41 -6 0 -12 6 -15 13 -2 6 -8 8 -13 4 -5 -5 1
-17 14 -27 12 -10 22 -23 22 -30 0 -6 5 -8 12 -4 7 5 9 2 5 -9 -3 -9 0 -18 9
-21 8 -3 13 -9 12 -13 -1 -4 5 -20 12 -35 11 -23 16 -26 28 -15 13 10 14 9 5
-8 -12 -22 7 -61 22 -47 5 4 5 -2 1 -12 -4 -12 0 -26 10 -37 9 -10 13 -22 10
-28 -4 -5 -1 -21 6 -36 8 -18 14 -22 20 -13 6 10 8 10 8 -2 0 -13 1 -13 11 0
9 13 10 13 6 0 -2 -8 -9 -15 -15 -15 -7 0 -12 -3 -12 -7 0 -49 1 -52 9 -40 5
9 8 -5 9 -35 1 -26 3 -102 4 -168 2 -72 -1 -142 -9 -175 -7 -30 -12 -68 -13
-83 0 -16 -4 -26 -9 -23 -5 3 -12 -1 -15 -10 -3 -8 -2 -12 4 -9 6 3 1 -10 -11
-29 -11 -19 -17 -41 -13 -47 4 -7 3 -10 -2 -7 -5 3 -19 -14 -31 -38 -20 -37
-20 -42 -6 -37 15 6 16 5 3 -9 -8 -9 -17 -14 -19 -13 -7 7 -52 -55 -47 -64 3
-5 -3 -20 -14 -32 -11 -13 -19 -20 -20 -15 0 5 8 19 17 30 9 12 1 5 -18 -14
-19 -19 -34 -37 -32 -39 1 -2 -15 -17 -37 -33 -22 -17 -37 -35 -33 -40 3 -7 1
-8 -6 -4 -17 11 -41 -12 -34 -32 6 -14 4 -15 -9 -5 -12 11 -19 8 -38 -12 -13
-14 -31 -25 -41 -25 -9 0 -19 -6 -22 -14 -3 -7 -19 -16 -35 -19 -16 -3 -37
-13 -45 -22 -18 -17 -31 -20 -21 -4 4 7 -2 7 -17 -1 -30 -16 -39 -25 -16 -17
9 4 17 3 17 -2 0 -5 -15 -11 -34 -13 -19 -2 -33 -1 -31 2 2 3 -25 -1 -60 -10
-39 -9 -59 -18 -52 -23 7 -5 -19 -6 -58 -4 -45 3 -63 1 -50 -4 15 -7 13 -8
-10 -4 -16 3 -65 6 -107 7 -43 2 -78 6 -78 9 0 7 -91 24 -122 23 -9 0 -14 4
-11 9 3 5 -4 6 -17 2 -15 -5 -20 -4 -16 4 5 7 1 8 -10 4 -13 -5 -15 -3 -9 7 5
8 3 11 -6 8 -8 -3 -35 10 -61 29 -26 18 -51 33 -54 33 -4 0 -23 12 -42 27 -20
15 -32 20 -28 12 5 -8 -3 -1 -16 15 -14 16 -29 26 -35 23 -6 -4 -17 1 -24 11
-12 15 -12 16 1 7 9 -5 2 2 -15 17 -27 25 -46 33 -68 29 -5 -1 -6 3 -2 8 3 6
13 7 22 4 15 -6 16 -5 3 9 -8 9 -18 14 -22 11 -5 -2 -8 0 -8 5 0 6 -14 25 -31
43 -17 19 -40 50 -50 69 -11 19 -19 30 -19 25 -1 -21 -30 30 -30 52 0 13 -4
23 -10 23 -5 0 -6 7 -3 17 4 11 3 14 -5 9 -8 -5 -12 1 -12 17 0 14 -7 27 -15
31 -10 3 -15 19 -15 46 0 23 -4 39 -9 35 -9 -5 -12 15 -12 108 0 26 -3 46 -7
43 -4 -2 -4 46 0 107 5 62 6 123 3 137 -5 20 -3 22 5 10 9 -12 11 -10 7 12 -2
16 0 25 5 22 5 -4 9 2 7 12 -1 11 4 33 10 49 7 17 14 35 15 41 1 7 7 18 12 25
18 23 43 80 33 74 -5 -4 -4 5 2 19 7 14 15 23 20 21 4 -3 13 8 21 25 7 16 17
30 21 30 5 0 6 4 3 9 -3 5 1 12 10 15 8 3 12 11 8 17 -4 7 -3 9 4 6 12 -8 65
50 57 63 -5 8 45 50 60 50 3 0 24 14 45 31 26 21 37 37 35 50 -2 11 0 17 6 14
5 -4 6 -11 3 -17 -4 -6 -1 -8 7 -6 8 3 13 11 11 18 -2 8 3 10 14 6 15 -6 15
-4 3 11 -10 12 -11 15 -1 9 20 -12 65 2 59 18 -4 10 0 12 14 9 11 -3 19 0 19
6 0 7 6 11 13 10 37 -5 54 15 20 24 -10 2 1 3 24 2 51 -3 94 5 88 15 -3 4 16
8 42 8 25 1 48 4 52 8 3 3 85 4 183 2 126 -3 181 -8 192 -17z m1746 10 c23 -1
31 -4 22 -9 -8 -6 4 -9 34 -10 26 0 49 -4 53 -9 3 -4 13 -10 21 -12 8 -2 24
-6 34 -9 14 -4 17 -2 11 8 -5 9 -4 11 4 6 6 -4 9 -11 7 -15 -5 -8 90 -51 112
-51 9 0 12 -47 14 -190 0 -104 1 -196 2 -202 1 -7 -9 -14 -21 -16 -12 -2 -25
-12 -28 -23 -7 -21 -20 -25 -31 -7 -4 6 -3 8 4 4 6 -3 13 -2 17 4 3 6 -4 10
-17 11 -13 0 -18 3 -11 5 12 5 9 19 -25 111 -10 29 -22 50 -27 45 -4 -4 -5 1
-2 11 4 11 3 16 -3 12 -6 -3 -11 -1 -11 4 -1 6 -2 15 -3 19 -2 18 -51 80 -58
76 -4 -3 -8 1 -8 9 0 8 -8 21 -19 31 -14 13 -24 14 -45 7 -32 -13 -35 -4 -3 9
l22 9 -22 7 c-13 3 -23 10 -23 15 0 5 -3 8 -7 7 -5 -1 -19 4 -33 11 -13 8 -38
14 -54 13 -23 -1 -27 2 -16 9 11 8 4 9 -23 4 -22 -3 -37 -2 -34 2 3 5 -31 8
-76 8 -121 -3 -129 -4 -121 -17 4 -6 3 -8 -3 -5 -15 10 -68 -20 -96 -53 -14
-16 -27 -27 -30 -24 -2 3 -7 -2 -11 -11 -4 -11 -2 -14 6 -9 7 4 1 -8 -12 -26
-16 -23 -20 -35 -12 -38 7 -2 9 -9 5 -15 -4 -7 -9 -21 -10 -32 -3 -16 -1 -17
7 -5 8 12 9 10 8 -10 -2 -37 39 -100 60 -93 9 3 14 3 10 -2 -9 -10 35 -45 57
-45 9 0 13 -5 9 -11 -4 -8 0 -8 15 0 12 7 21 8 20 4 -4 -21 4 -28 32 -29 16
-1 36 -7 42 -13 9 -9 8 -11 -8 -6 -11 3 -5 -2 13 -10 18 -9 37 -13 43 -10 5 4
9 2 9 -2 0 -13 59 -33 77 -26 11 4 14 3 9 -6 -5 -8 -3 -11 5 -10 8 2 24 -2 36
-9 12 -6 46 -18 76 -26 31 -8 64 -19 74 -24 18 -10 25 -12 44 -12 5 0 8 -4 5
-9 -3 -5 1 -12 10 -15 10 -4 13 -2 8 7 -4 6 2 3 14 -7 12 -11 25 -17 28 -13 3
3 16 -5 28 -17 11 -13 27 -21 34 -19 7 3 11 -1 10 -9 -2 -7 5 -12 14 -12 10 1
16 -2 13 -6 -6 -9 29 -41 48 -44 22 -3 46 -26 42 -39 -3 -7 9 -28 26 -47 24
-27 28 -30 18 -10 -9 20 -9 23 1 13 7 -7 14 -20 16 -30 5 -38 17 -62 27 -56 6
4 8 0 4 -11 -4 -10 2 -35 12 -56 13 -27 18 -54 15 -87 -3 -37 -2 -42 5 -23 5
14 9 20 10 15 1 -13 -18 -172 -24 -200 -18 -78 -22 -111 -18 -124 3 -12 2 -12
-4 -4 -6 9 -20 -2 -48 -40 -22 -28 -38 -56 -37 -60 1 -5 -1 -6 -6 -3 -5 3 -18
-4 -30 -14 -12 -11 -24 -20 -27 -20 -9 0 -98 -62 -106 -74 -4 -5 -11 -6 -17
-2 -6 3 -13 2 -17 -4 -3 -5 -15 -10 -26 -10 -12 0 -17 -4 -13 -11 4 -7 -3 -10
-17 -9 -13 1 -35 2 -49 1 -20 -1 -22 -3 -10 -11 11 -7 5 -8 -20 -4 -26 4 -31
3 -20 -5 13 -9 13 -11 -2 -11 -10 0 -18 5 -18 10 0 7 -7 7 -21 -1 -27 -14
-322 -15 -391 -1 -26 5 -45 5 -42 1 8 -13 -7 -10 -36 6 -14 8 -34 14 -45 15
-11 0 -33 7 -50 16 -18 9 -31 11 -33 5 -4 -12 -52 8 -52 22 0 5 -8 6 -17 3 -9
-4 -19 -3 -22 1 -10 14 -82 44 -91 38 -20 -13 -25 42 -22 263 l3 233 42 -5
c23 -3 43 -5 45 -5 1 -1 2 -7 2 -15 0 -22 42 -116 50 -111 4 2 12 -8 19 -23
11 -25 10 -26 -4 -8 -21 28 -19 7 3 -27 10 -15 22 -24 27 -20 4 5 5 -1 1 -11
-6 -16 -4 -17 10 -5 19 15 47 21 38 8 -3 -5 -9 -7 -14 -4 -5 3 -14 -5 -21 -17
-11 -20 -10 -21 3 -11 12 11 14 9 13 -10 -2 -27 99 -137 127 -137 10 0 17 -5
15 -11 -1 -6 4 -14 12 -17 9 -3 11 0 6 8 -5 9 -4 11 4 6 6 -4 9 -11 6 -16 -3
-5 4 -14 16 -20 30 -17 132 -50 149 -49 8 1 4 5 -10 9 -21 7 -22 8 -5 9 12 1
26 -4 33 -11 11 -11 76 -14 159 -7 24 2 37 7 30 11 -7 4 7 8 29 8 28 0 44 5
48 15 3 8 12 12 19 9 8 -3 21 2 30 10 8 8 17 13 19 11 2 -3 17 9 33 25 16 17
25 30 21 30 -4 0 2 10 14 22 11 12 20 27 20 32 0 6 -5 4 -11 -4 -9 -12 -10
-12 -5 3 3 10 6 24 6 30 0 7 4 6 10 -3 7 -11 10 2 10 43 0 34 -4 57 -11 57 -6
0 -8 9 -4 20 12 38 -82 165 -113 153 -10 -4 -13 -2 -8 5 6 11 -31 38 -46 34
-5 -1 -8 3 -8 8 0 6 -12 10 -26 10 -14 0 -23 4 -20 9 7 11 -73 43 -87 34 -6
-3 -7 -1 -4 4 4 6 0 14 -9 17 -10 4 -13 2 -8 -7 4 -6 -1 -5 -12 4 -18 15 -69
36 -69 28 0 -2 -13 5 -30 14 -43 24 -117 47 -129 40 -6 -3 -8 -3 -4 2 8 9 -36
35 -59 35 -8 0 -21 7 -29 15 -12 12 -20 13 -37 3 -19 -10 -20 -9 -9 4 10 13 5
19 -35 38 -79 36 -93 44 -93 53 0 19 -63 75 -78 70 -13 -4 -14 -3 -3 5 11 8
10 13 -5 29 -30 31 -46 63 -50 102 -2 20 -7 48 -10 63 -13 63 -11 105 7 174
10 40 16 81 13 91 -4 13 -3 14 4 5 7 -11 10 -10 16 3 3 9 4 21 0 26 -3 5 0 17
6 26 9 15 10 14 4 -6 -4 -16 -3 -21 5 -17 6 4 11 13 11 20 0 7 9 21 19 30 11
10 18 23 17 29 -2 7 -1 8 2 4 2 -5 19 9 38 29 18 21 36 35 40 32 6 -7 84 38
95 54 3 5 10 9 15 8 20 -4 113 34 102 41 -7 4 80 6 193 4 112 -2 220 -4 239
-4z m1495 -2 c44 -6 90 -11 102 -11 13 0 21 -4 18 -8 -3 -5 13 -11 35 -15 22
-4 59 -16 82 -28 24 -11 58 -21 77 -21 19 0 28 -2 21 -4 -9 -3 -9 -6 1 -13 11
-6 14 -49 14 -199 0 -177 1 -191 18 -186 9 2 17 0 17 -5 0 -5 -4 -9 -10 -9 -5
0 -10 -7 -10 -15 0 -9 -9 -15 -22 -14 -17 1 -19 2 -5 6 9 2 17 8 17 13 0 12
-32 0 -42 -14 -5 -8 -8 -7 -8 1 0 6 -8 10 -19 8 -14 -3 -18 1 -14 16 3 11 0
19 -7 19 -7 0 -9 8 -5 21 5 14 4 19 -4 15 -7 -5 -8 -1 -4 9 3 10 1 20 -6 24
-6 4 -14 18 -16 31 -8 39 -32 83 -68 122 -19 21 -31 41 -28 44 3 4 -2 4 -12 1
-10 -4 -16 -3 -12 2 6 11 -42 51 -61 51 -8 0 -14 4 -14 10 0 5 -12 13 -27 16
-16 4 -33 11 -39 16 -21 16 -251 30 -260 16 -3 -4 -14 -8 -25 -8 -10 0 -19 -5
-19 -11 0 -6 -6 -9 -14 -6 -7 3 -26 -7 -41 -23 -15 -16 -32 -28 -37 -27 -23 5
-50 -52 -53 -109 -3 -58 18 -119 37 -108 4 3 5 -2 2 -10 -8 -22 13 -20 25 2
11 18 11 16 16 -31 3 -35 21 -49 57 -44 16 2 26 1 23 -1 -10 -11 19 -32 44
-32 21 0 23 -2 11 -11 -12 -9 -11 -10 7 -6 13 3 21 0 20 -6 -1 -6 9 -13 22
-15 14 -2 36 -11 50 -20 17 -12 23 -13 17 -3 -7 10 -3 12 15 6 13 -4 30 -12
37 -18 22 -18 144 -57 155 -50 6 4 7 1 2 -7 -6 -10 -4 -12 8 -7 10 3 17 2 17
-3 0 -5 16 -12 35 -16 20 -3 41 -12 48 -18 18 -18 89 -57 82 -46 -4 6 9 3 29
-6 19 -10 33 -21 30 -26 -7 -12 25 -48 42 -48 7 0 25 -15 40 -32 15 -18 32
-33 37 -33 6 0 12 -7 14 -15 4 -13 3 -13 -6 0 -7 9 -11 11 -11 3 0 -7 8 -17
18 -22 9 -6 13 -11 7 -11 -5 0 -3 -5 5 -10 8 -5 15 -13 16 -17 0 -4 6 -21 13
-38 29 -66 64 -218 50 -209 -5 3 -9 0 -9 -5 0 -6 4 -11 9 -11 6 0 6 -12 0 -32
-5 -18 -9 -49 -9 -68 0 -19 -7 -48 -15 -64 -9 -16 -13 -36 -11 -43 3 -7 1 -13
-4 -13 -6 0 -10 -10 -10 -22 0 -26 -13 -50 -26 -48 -5 0 -10 -8 -12 -20 -2
-11 -8 -18 -13 -15 -5 4 -9 -4 -9 -17 0 -17 -3 -19 -9 -9 -6 9 -11 10 -15 2
-4 -6 -5 -15 -2 -20 9 -14 -20 -32 -39 -24 -15 5 -17 3 -12 -11 6 -14 3 -17
-8 -12 -11 4 -14 2 -9 -6 5 -8 1 -9 -11 -4 -18 6 -18 6 1 -15 l19 -23 -24 17
c-22 15 -27 15 -41 2 -10 -9 -40 -24 -69 -34 -28 -10 -48 -21 -43 -26 4 -4 -1
-5 -10 -2 -10 3 -36 0 -59 -8 -72 -26 -315 -36 -449 -20 -25 3 -69 8 -97 12
-29 3 -53 9 -53 14 0 5 -12 4 -26 -2 -15 -5 -29 -7 -32 -4 -3 3 1 5 8 5 9 0 7
5 -6 14 -11 8 -32 13 -49 10 -20 -3 -24 -2 -12 4 13 5 -5 14 -69 35 -47 15
-89 25 -93 23 -3 -2 -6 105 -6 237 0 202 2 244 15 254 8 6 19 8 25 5 5 -4 17
-5 26 -4 16 3 39 -36 39 -64 0 -9 5 -12 11 -8 8 4 9 -1 4 -17 -7 -22 -7 -23
10 -9 17 14 17 14 6 -7 -8 -16 -8 -23 -1 -23 6 0 8 -5 5 -10 -3 -6 4 -25 17
-42 12 -18 23 -39 25 -46 2 -14 41 -64 56 -70 4 -2 7 -9 7 -17 0 -7 8 -19 18
-26 16 -13 16 -13 2 5 -13 17 -13 19 0 14 8 -2 17 -13 19 -24 5 -29 31 -53 49
-47 9 4 13 2 9 -4 -9 -15 45 -51 97 -65 26 -7 46 -16 46 -21 0 -5 12 -6 26 -3
15 4 23 3 20 -2 -3 -5 18 -12 47 -15 28 -2 54 -1 55 4 2 5 9 6 15 2 17 -10
111 -3 118 9 4 6 13 8 21 5 34 -12 178 85 178 120 0 7 5 13 11 13 6 0 8 7 5
16 -4 10 -2 13 6 8 7 -5 9 0 6 14 -4 12 -3 22 1 22 9 0 6 111 -4 135 -4 11
-24 41 -42 67 -30 41 -37 46 -54 38 -10 -6 -19 -8 -19 -5 0 13 6 20 15 17 6
-1 -3 9 -20 23 -32 26 -51 33 -39 13 4 -7 3 -8 -5 -4 -6 4 -9 11 -6 16 8 13
-51 41 -72 34 -15 -5 -16 -4 -3 6 12 9 10 11 -12 7 -15 -2 -25 0 -22 4 5 9 -8
12 -41 10 -17 -2 -17 0 -5 8 9 7 10 11 3 11 -6 0 -24 5 -40 12 -15 6 -34 10
-42 9 -8 -1 -10 2 -6 9 5 9 1 10 -15 5 -16 -5 -20 -4 -15 5 5 9 1 10 -15 5
-17 -5 -20 -4 -15 5 5 8 3 11 -6 8 -8 -3 -20 2 -27 9 -8 8 -23 11 -34 7 -14
-4 -18 -2 -14 5 4 6 1 12 -6 13 -7 0 -18 2 -23 2 -6 1 -21 9 -35 19 -13 9 -29
17 -35 17 -5 0 -3 -5 5 -10 9 -6 10 -10 3 -10 -6 0 -15 5 -18 10 -4 6 -10 8
-15 5 -4 -2 -19 4 -33 15 -31 25 -41 25 -32 3 5 -14 4 -15 -6 -6 -10 10 -9 16
1 28 7 9 9 15 4 14 -14 -4 -64 12 -61 20 1 3 -22 31 -52 61 -30 30 -49 48 -43
38 9 -11 10 -18 2 -23 -6 -4 -10 -3 -9 2 1 4 0 10 -1 13 -1 3 -3 12 -5 21 -4
23 -35 69 -47 69 -5 0 -4 -9 2 -20 15 -28 5 -25 -14 5 -9 14 -13 25 -9 24 20
-3 27 2 13 11 -8 5 -16 24 -17 42 -1 18 -4 69 -7 112 -4 57 -2 91 10 124 8 25
12 52 10 59 -3 8 -1 11 4 8 10 -6 11 -5 15 31 1 12 12 32 23 44 12 13 19 28
15 33 -3 6 -2 7 4 4 6 -4 27 13 47 38 20 24 47 45 59 47 21 3 20 5 -8 21 -16
10 -21 15 -10 12 46 -16 53 -16 86 4 19 12 33 24 32 28 -1 5 5 7 14 5 8 -2 12
1 9 6 -3 5 7 8 24 6 16 -2 35 3 44 11 16 16 30 20 22 6 -3 -5 13 -3 37 4 51
16 239 18 352 4z m-5038 -5 c-3 -3 -12 -4 -19 -1 -8 3 -5 6 6 6 11 1 17 -2 13
-5z m1293 2 c0 -2 -11 -6 -25 -8 -13 -3 -22 -1 -19 3 5 9 44 13 44 5z m-2373
-18 c2 6 9 12 14 12 6 0 8 -4 4 -9 -3 -6 202 -10 548 -9 542 0 554 0 600 -21
25 -12 53 -21 61 -21 24 0 46 -11 41 -21 -6 -9 40 -24 65 -21 11 1 11 0 2 -4
-10 -5 -9 -10 4 -25 9 -10 23 -19 30 -19 8 0 11 -6 7 -17 -4 -11 -3 -14 5 -9
7 4 12 1 12 -8 0 -9 5 -16 10 -16 6 0 10 -10 10 -22 0 -15 3 -19 8 -11 5 8 8
-1 8 -21 0 -18 8 -41 17 -50 17 -17 24 -42 10 -33 -5 3 -8 -34 -9 -81 0 -93
-9 -139 -31 -160 -7 -7 -13 -19 -13 -25 0 -7 5 -6 11 3 9 13 10 13 6 0 -2 -8
-8 -15 -14 -15 -5 0 -23 -16 -39 -35 -25 -31 -26 -33 -4 -15 l25 20 -19 -22
c-10 -13 -22 -21 -26 -18 -10 6 -51 -25 -45 -35 3 -5 0 -12 -6 -16 -8 -5 -9
-3 -4 6 5 8 3 11 -6 8 -8 -3 -13 -11 -11 -18 2 -7 -3 -10 -11 -7 -8 3 -26 -3
-41 -13 l-28 -18 46 -15 c26 -9 44 -12 41 -6 -4 5 -1 9 4 9 6 0 11 -7 11 -16
0 -11 5 -14 17 -10 10 4 14 4 10 0 -10 -11 45 -36 67 -30 13 3 16 2 9 -5 -7
-7 4 -24 35 -52 25 -23 49 -41 54 -39 5 1 7 -2 4 -7 -8 -13 39 -93 49 -84 4 5
5 3 1 -4 -4 -7 0 -29 9 -50 13 -30 15 -67 13 -175 -2 -75 -6 -128 -10 -117
-10 26 -21 24 -13 -2 5 -15 4 -19 -4 -15 -6 4 -11 1 -11 -6 0 -7 -9 -24 -20
-38 -11 -14 -20 -29 -19 -35 0 -5 6 -1 15 10 13 17 16 18 24 5 5 -8 10 -19 10
-25 0 -5 -4 -4 -9 4 -6 9 -14 10 -22 5 -8 -5 -17 -9 -21 -9 -5 0 -9 -4 -10
-10 -1 -5 -20 -25 -43 -44 -47 -39 -55 -47 -36 -36 9 5 12 4 7 -3 -4 -7 -14
-12 -22 -12 -8 0 -12 -5 -9 -11 4 -6 1 -10 -6 -8 -8 1 -21 1 -29 0 -13 -1 -13
-2 0 -11 13 -8 12 -10 -5 -11 -11 -1 -25 -3 -31 -3 -6 -1 -23 -10 -38 -20 -16
-10 -25 -13 -21 -6 4 6 -11 2 -33 -9 -22 -11 -43 -17 -47 -13 -5 4 -5 1 0 -7
6 -10 2 -12 -14 -6 -13 4 -21 2 -21 -5 0 -6 -10 -10 -22 -9 -43 4 -89 -1 -85
-9 3 -4 -101 -7 -231 -6 -148 1 -239 -2 -243 -9 -4 -5 -13 -6 -20 -2 -7 5
-119 9 -248 11 -130 1 -227 -2 -216 -7 19 -7 19 -8 -2 -8 -13 -1 -23 5 -23 12
0 8 -4 7 -10 -3 -6 -10 -10 -11 -10 -3 0 9 -7 10 -24 3 -23 -8 -24 -8 -24 51
0 47 3 57 13 49 9 -8 15 -7 18 2 4 9 8 10 14 3 14 -18 53 -16 53 3 0 14 2 14
9 3 5 -7 14 -10 21 -6 9 6 9 9 -1 16 -10 6 -11 9 -1 9 6 0 12 5 12 11 0 5 -3
8 -8 6 -4 -3 -4 65 0 151 5 87 5 416 2 732 l-6 575 -41 8 c-23 4 -50 6 -59 3
-20 -5 -25 8 -23 54 4 67 4 67 16 50 8 -11 12 -12 16 -2z m6357 3 c4 -5 -3 -7
-14 -4 -23 6 -26 13 -6 13 8 0 17 -4 20 -9z m-3324 -11 c0 -5 -5 -10 -11 -10
-5 0 -7 5 -4 10 3 6 8 10 11 10 2 0 4 -4 4 -10z m-1640 -74 c0 -3 -4 -8 -10
-11 -5 -3 -10 -1 -10 4 0 6 5 11 10 11 6 0 10 -2 10 -4z m4483 -13 c-7 -2 -19
-2 -25 0 -7 3 -2 5 12 5 14 0 19 -2 13 -5z m-1505 -12 c11 -7 10 -9 -3 -14 -9
-4 -14 -3 -10 2 3 5 -1 12 -7 14 -7 3 -8 6 -3 6 6 0 16 -3 23 -8z m1459 -7
c-3 -3 -12 -4 -19 -1 -8 3 -5 6 6 6 11 1 17 -2 13 -5z m-3718 -16 c-2 -2 -17
-14 -34 -28 -16 -14 -24 -18 -17 -9 6 9 8 20 4 24 -4 5 -2 5 5 1 6 -3 14 -2
18 4 3 5 11 10 17 10 6 0 9 -1 7 -2z m1116 -8 c3 -5 1 -10 -4 -10 -6 0 -11 5
-11 10 0 6 2 10 4 10 3 0 8 -4 11 -10z m945 -30 c0 -5 -2 -10 -4 -10 -3 0 -8
5 -11 10 -3 6 -1 10 4 10 6 0 11 -4 11 -10z m1510 -9 c-5 -11 -15 -23 -22 -27
-7 -5 -8 -2 -3 7 21 37 44 55 25 20z m33 4 c-3 -9 -8 -14 -10 -11 -3 3 -2 9 2
15 9 16 15 13 8 -4z m-1896 -37 c-3 -7 -5 -2 -5 12 0 14 2 19 5 13 2 -7 2 -19
0 -25z m1170 -60 c-2 -13 -4 -3 -4 22 0 25 2 35 4 23 2 -13 2 -33 0 -45z m703
31 c0 -5 -7 -9 -15 -9 -15 0 -20 12 -9 23 8 8 24 -1 24 -14z m528 -10 c-3 -8
-7 -3 -11 10 -4 17 -3 21 5 13 5 -5 8 -16 6 -23z m-1468 -14 l25 -30 -27 24
c-16 14 -28 29 -28 34 0 6 1 8 3 6 1 -2 13 -17 27 -34z m-3283 -167 c-2 -13
-4 -3 -4 22 0 25 2 35 4 23 2 -13 2 -33 0 -45z m356 47 c-3 -9 -8 -14 -10 -11
-3 3 -2 9 2 15 9 16 15 13 8 -4z m3134 -87 c-3 -8 -6 -5 -6 6 -1 11 2 17 5 13
3 -3 4 -12 1 -19z m908 12 c3 -5 1 -10 -4 -10 -6 0 -11 5 -11 10 0 6 2 10 4
10 3 0 8 -4 11 -10z m-5788 -132 c-2 -13 -4 -3 -4 22 0 25 2 35 4 23 2 -13 2
-33 0 -45z m5996 45 c-7 -2 -21 -2 -30 0 -10 3 -4 5 12 5 17 0 24 -2 18 -5z
m-1497 -39 c18 -14 18 -14 -6 -3 -31 14 -36 19 -24 19 6 0 19 -7 30 -16z
m1729 -54 c-35 -7 -63 -1 -46 10 6 3 26 4 44 1 l32 -5 -30 -6z m-4914 -33
c-10 -9 -11 -8 -5 6 3 10 9 15 12 12 3 -3 0 -11 -7 -18z m2429 -21 c0 -26 -6
-18 -14 19 -5 22 -4 26 4 15 5 -8 10 -24 10 -34z m1514 18 c3 -8 2 -12 -4 -9
-6 3 -10 10 -10 16 0 14 7 11 14 -7z m-4079 -94 c3 -5 1 -10 -4 -10 -6 0 -11
5 -11 10 0 6 2 10 4 10 3 0 8 -4 11 -10z m189 -104 c-3 -7 2 -16 10 -19 9 -4
16 -11 16 -17 0 -6 -9 -2 -21 9 -12 11 -18 24 -14 30 9 16 15 14 9 -3z m3634
-41 c-3 -3 -9 2 -12 12 -6 14 -5 15 5 6 7 -7 10 -15 7 -18z m-998 -5 c-8 -5
-19 -10 -25 -10 -5 0 -3 5 5 10 8 5 20 10 25 10 6 0 3 -5 -5 -10z m2587 -82
c-3 -8 -6 -5 -6 6 -1 11 2 17 5 13 3 -3 4 -12 1 -19z m-25 -17 c2 -17 1 -28
-4 -25 -8 5 -12 54 -4 54 2 0 6 -13 8 -29z m-1215 -103 c-3 -8 -6 -5 -6 6 -1
11 2 17 5 13 3 -3 4 -12 1 -19z m-697 -90 c0 -14 -19 1 -31 25 -12 22 -12 22
10 3 11 -11 21 -23 21 -28z m-36 6 c3 -8 2 -12 -4 -9 -6 3 -10 10 -10 16 0 14
7 11 14 -7z m-1187 -26 c-3 -8 -6 -5 -6 6 -1 11 2 17 5 13 3 -3 4 -12 1 -19z
m2736 -1 c3 -8 -1 -14 -8 -14 -7 0 -11 6 -8 14 3 7 6 13 8 13 2 0 5 -6 8 -13z
m-2205 -169 c10 -12 10 -18 1 -24 -7 -4 -9 -3 -5 4 3 6 2 13 -4 17 -5 3 -10
11 -10 17 0 6 1 9 3 7 1 -2 8 -11 15 -21z m-2481 -20 c2 -18 0 -20 -7 -8 -12
18 -13 30 -2 30 4 0 9 -10 9 -22z m2538 2 c-3 -5 -12 -10 -18 -10 -7 0 -6 4 3
10 19 12 23 12 15 0z m1525 -10 c11 -11 20 -26 19 -32 0 -7 -5 -3 -11 8 -5 12
-20 27 -32 32 -11 6 -15 11 -8 11 6 1 21 -8 32 -19z m-3685 -10 c3 -5 1 -10
-4 -10 -6 0 -11 5 -11 10 0 6 2 10 4 10 3 0 8 -4 11 -10z m1379 -76 c3 -8 2
-12 -4 -9 -6 3 -10 10 -10 16 0 14 7 11 14 -7z m-1871 -19 c-3 -9 -8 -14 -10
-11 -3 3 -2 9 2 15 9 16 15 13 8 -4z m3516 -58 c-16 -16 -62 -30 -53 -16 3 5
11 9 18 9 8 0 19 7 26 15 7 9 15 13 18 11 2 -3 -2 -11 -9 -19z m1166 3 c3 -6
-1 -7 -9 -4 -18 7 -21 14 -7 14 6 0 13 -4 16 -10z m390 -10 c-3 -5 -12 -10
-18 -10 -7 0 -6 4 3 10 19 12 23 12 15 0z m-4360 -33 c-11 -6 -21 -5 -28 3 -9
8 -7 9 7 4 13 -5 17 -4 12 4 -5 8 -2 10 10 5 15 -6 15 -7 -1 -16z m2825 19 c0
-3 -4 -8 -10 -11 -5 -3 -10 -1 -10 4 0 6 5 11 10 11 6 0 10 -2 10 -4z m-3603
-12 c-3 -3 -12 -4 -19 -1 -8 3 -5 6 6 6 11 1 17 -2 13 -5z m2458 -4 c3 -5 1
-10 -4 -10 -6 0 -11 5 -11 10 0 6 2 10 4 10 3 0 8 -4 11 -10z m2655 0 c8 -5
11 -10 5 -10 -5 0 -17 5 -25 10 -8 5 -10 10 -5 10 6 0 17 -5 25 -10z m-4235
-50 c17 -11 27 -20 23 -20 -3 0 -15 -3 -25 -6 -14 -5 -15 -4 -4 4 11 8 8 13
-15 26 -16 8 -24 15 -19 16 6 0 24 -9 40 -20z m-1058 -6 c-3 -3 -12 -4 -19 -1
-8 3 -5 6 6 6 11 1 17 -2 13 -5z m3570 -11 c-4 -3 0 -11 9 -18 13 -9 9 -10
-21 -7 -36 4 -36 5 -13 17 27 15 34 17 25 8z m1490 -19 c-3 -3 -12 -4 -19 -1
-8 3 -5 6 6 6 11 1 17 -2 13 -5z m-3492 -64 c3 -6 -1 -7 -9 -4 -18 7 -21 14
-7 14 6 0 13 -4 16 -10z m68 3 c-7 -2 -19 -2 -25 0 -7 3 -2 5 12 5 14 0 19 -2
13 -5z m-236 -19 c-3 -3 -12 -4 -19 -1 -8 3 -5 6 6 6 11 1 17 -2 13 -5z
m-2237 -168 c0 -2 -7 -7 -16 -10 -8 -3 -12 -2 -9 4 6 10 25 14 25 6z m-43 -28
c-3 -8 -6 -5 -6 6 -1 11 2 17 5 13 3 -3 4 -12 1 -19z m588 4 c-3 -3 -11 0 -18
7 -9 10 -8 11 6 5 10 -3 15 -9 12 -12z m3132 12 c-3 -3 -12 -4 -19 -1 -8 3 -5
6 6 6 11 1 17 -2 13 -5z m748 -4 c3 -5 1 -10 -4 -10 -6 0 -11 5 -11 10 0 6 2
10 4 10 3 0 8 -4 11 -10z m785 0 c0 -5 -2 -10 -4 -10 -3 0 -8 5 -11 10 -3 6
-1 10 4 10 6 0 11 -4 11 -10z m798 -15 c-3 -3 -9 2 -12 12 -6 14 -5 15 5 6 7
-7 10 -15 7 -18z m39 9 c-3 -3 -12 -4 -19 -1 -8 3 -5 6 6 6 11 1 17 -2 13 -5z
m-1761 -19 c20 -19 4 -20 -22 0 -12 9 -14 14 -6 15 7 0 20 -7 28 -15z m794 11
c0 -11 -19 -15 -25 -6 -3 5 1 10 9 10 9 0 16 -2 16 -4z m-5009 -29 c-10 -9
-11 -8 -5 6 3 10 9 15 12 12 3 -3 0 -11 -7 -18z m528 -16 c-2 -6 -10 2 -17 17
-11 25 -11 25 4 10 9 -9 15 -21 13 -27z m261 8 c0 -6 -4 -7 -10 -4 -5 3 -10
11 -10 16 0 6 5 7 10 4 6 -3 10 -11 10 -16z m617 12 c25 -5 44 -4 45 1 2 5 17
-2 33 -16 17 -14 33 -26 36 -26 3 0 11 -10 18 -22 6 -13 10 -16 7 -7 -2 9 2
16 9 16 7 0 11 -5 9 -11 -2 -6 -6 -26 -8 -44 -3 -26 0 -32 11 -28 8 3 11 1 8
-4 -8 -13 -35 -13 -35 0 0 15 -30 12 -30 -2 -1 -14 -24 21 -25 37 -1 6 -6 9
-13 8 -7 -2 -11 3 -9 10 1 6 -4 11 -10 10 -7 -2 -13 2 -13 7 0 6 -12 8 -27 4
-22 -4 -25 -3 -13 5 12 9 8 10 -15 5 -50 -10 -55 -13 -49 -29 3 -8 1 -15 -6
-15 -6 0 -8 5 -5 10 3 6 2 10 -4 10 -15 0 -43 -46 -47 -76 -1 -14 -5 -28 -8
-31 -3 -3 -1 -14 5 -24 7 -13 6 -19 -1 -19 -6 0 -3 -11 6 -25 9 -14 14 -25 11
-25 -3 0 7 -14 23 -31 15 -17 33 -28 39 -25 6 4 11 2 11 -3 0 -16 53 -13 85 3
18 10 22 16 13 20 -7 3 -3 4 9 2 15 -3 20 0 16 10 -3 8 0 14 7 14 6 0 8 5 5
10 -3 6 -1 10 4 10 6 0 11 7 11 15 0 18 -41 20 -71 5 -13 -7 -19 -7 -19 0 0 5
-10 10 -23 10 -18 0 -23 5 -22 24 0 13 3 27 6 31 13 12 173 9 177 -3 2 -7 8
-10 13 -6 5 3 9 -1 9 -10 0 -8 -6 -17 -12 -20 -10 -5 -10 -7 0 -12 6 -3 12
-12 12 -20 0 -9 -5 -12 -12 -8 -8 5 -9 -4 -4 -34 3 -23 2 -42 -2 -42 -5 0 -15
-11 -22 -25 -8 -14 -19 -24 -26 -21 -7 3 -14 1 -16 -3 -2 -5 -14 -11 -28 -15
-20 -6 -22 -5 -10 4 12 10 12 11 -5 5 -11 -4 -37 -7 -58 -6 -25 1 -36 -2 -32
-8 7 -13 -27 -2 -35 11 -3 4 -15 9 -27 11 -12 1 -29 9 -39 17 -16 14 -17 13
-11 -3 4 -11 3 -16 -4 -12 -6 4 -8 13 -5 21 3 7 -2 20 -10 29 -9 8 -13 15 -11
15 3 0 -3 21 -12 48 -9 26 -16 58 -14 72 6 65 16 109 24 104 5 -3 12 8 15 25
4 17 10 28 15 25 5 -3 9 0 9 7 0 7 3 9 6 6 4 -4 20 3 35 14 19 13 37 18 51 14
18 -5 20 -4 8 4 -18 13 -9 13 47 2z m738 -1 c3 -5 12 -10 18 -10 9 0 9 2 0 8
-7 4 14 8 46 7 33 0 55 -3 49 -6 -5 -3 8 -15 30 -27 22 -11 42 -18 45 -16 3 3
14 -7 26 -22 15 -18 19 -34 14 -52 -5 -21 -3 -24 12 -19 13 6 16 3 11 -9 -3
-8 -6 -21 -7 -27 0 -7 -4 -3 -9 8 -6 14 -9 15 -9 4 -1 -8 4 -20 11 -27 8 -8 8
-15 -2 -27 -7 -8 -10 -26 -7 -41 2 -14 -2 -31 -10 -39 -8 -8 -11 -20 -7 -26 5
-8 3 -9 -6 -4 -10 6 -12 4 -7 -9 4 -10 3 -15 -3 -11 -6 3 -10 -1 -10 -10 0 -9
-4 -13 -10 -10 -5 3 -20 -1 -32 -9 -12 -9 -32 -16 -43 -16 -17 0 -17 -2 -5
-10 11 -7 3 -9 -25 -4 -25 3 -56 0 -82 -10 -51 -18 -57 -12 -10 8 l32 14 -27
1 c-16 1 -31 0 -34 -1 -3 -2 -10 5 -16 15 -5 10 -21 22 -35 28 -16 6 -23 14
-19 24 3 8 1 15 -5 15 -6 0 -8 4 -4 9 3 5 1 12 -5 16 -5 3 -10 27 -10 53 0 34
-3 43 -10 32 -6 -9 -10 -10 -10 -3 0 6 4 14 9 17 4 3 11 24 15 46 7 42 46 127
46 100 0 -10 3 -11 8 -4 4 6 15 13 25 17 10 4 16 11 13 15 -3 5 7 7 22 5 23
-3 24 -2 7 6 -17 8 -17 10 -3 10 9 1 20 -3 23 -9z m1302 -5 c78 8 138 -4 170
-34 11 -11 22 -18 24 -16 2 2 5 -19 5 -46 1 -41 -3 -53 -20 -67 l-22 -16 32
-28 c28 -25 32 -34 32 -81 -1 -38 -3 -47 -9 -32 -8 17 -9 15 -5 -8 2 -15 -1
-30 -7 -34 -6 -3 -7 -1 -3 5 4 7 2 12 -3 12 -6 0 -11 -4 -11 -10 0 -5 -7 -10
-15 -10 -8 0 -15 -5 -15 -11 0 -5 5 -7 12 -3 6 4 8 3 5 -4 -4 -5 -17 -8 -30
-5 -18 4 -20 3 -7 -7 13 -10 12 -11 -5 -5 -11 4 -66 7 -122 7 -58 0 -103 4
-103 10 0 5 -6 6 -12 2 -9 -5 -9 -2 1 9 7 9 10 17 5 17 -5 0 -9 40 -10 88 -1
70 0 78 6 42 5 -29 7 -1 5 79 -2 79 1 131 8 142 7 12 14 14 18 7 4 -7 30 -8
76 -3z m893 1 c30 -8 58 -12 63 -9 4 2 6 -1 5 -9 -2 -7 4 -12 14 -10 9 1 20
-3 24 -9 4 -8 3 -9 -4 -5 -8 5 -10 2 -6 -8 3 -9 10 -13 15 -10 5 3 9 -2 9 -11
0 -9 4 -13 10 -10 6 4 7 -1 3 -11 -4 -12 -3 -15 5 -10 8 5 10 -20 7 -96 -6
-130 -7 -139 -20 -130 -11 9 -66 -43 -56 -54 3 -3 -4 -3 -16 0 -15 5 -23 3
-23 -4 0 -8 -24 -11 -72 -9 -40 1 -82 -2 -93 -6 l-20 -8 20 17 c11 10 14 15 8
11 -7 -3 -13 -1 -13 5 0 7 -7 9 -16 6 -9 -3 -12 -2 -9 5 4 6 -2 13 -14 16 -11
3 -19 9 -16 13 3 5 2 15 -1 24 -5 14 -9 14 -22 4 -14 -12 -14 -10 -2 12 12 22
11 23 -1 13 -13 -10 -15 1 -14 86 0 61 4 97 10 95 10 -3 55 59 55 76 0 5 8 6
18 3 15 -6 15 -5 3 10 -12 15 -9 16 28 13 22 -2 38 1 35 5 -8 13 24 11 86 -5z
m800 0 c30 -8 58 -12 63 -9 4 2 6 -1 5 -9 -2 -7 2 -12 9 -11 7 2 10 -3 7 -11
-3 -7 2 -19 11 -26 8 -7 15 -25 15 -41 0 -27 -3 -29 -31 -27 -24 2 -33 9 -44
35 -15 36 -47 49 -96 39 -67 -13 -70 -69 -5 -82 20 -3 33 -11 30 -16 -4 -5 4
-9 17 -7 13 1 37 -3 52 -10 16 -6 33 -8 39 -5 6 4 8 2 5 -3 -4 -6 0 -14 9 -17
10 -4 13 -2 8 7 -5 9 -4 9 6 0 7 -7 14 -21 15 -32 1 -11 8 -27 16 -37 9 -11 9
-15 2 -10 -9 5 -13 -1 -13 -21 -1 -36 -26 -65 -78 -92 -45 -23 -56 -26 -48
-12 4 5 -11 4 -31 -2 -28 -9 -37 -9 -41 1 -2 7 -13 12 -25 12 -18 0 -19 -2 -7
-10 13 -9 13 -10 0 -10 -13 0 -13 -1 0 -10 8 -5 11 -10 5 -10 -5 0 -17 5 -25
10 -9 6 -11 10 -3 10 7 0 10 7 7 15 -4 8 -13 15 -21 15 -8 0 -11 5 -8 10 3 6
2 10 -3 10 -5 0 -14 10 -21 23 -6 12 -9 14 -6 4 2 -10 1 -16 -4 -13 -15 10
-11 86 4 86 7 0 20 3 29 6 11 4 16 1 16 -10 0 -35 70 -86 116 -86 13 0 24 5
24 11 0 6 6 9 14 6 23 -9 41 19 26 38 -11 13 -10 14 4 9 9 -3 16 -1 16 4 0 16
-51 49 -85 54 -16 3 -39 8 -50 13 -16 5 -17 5 -5 -4 26 -19 3 -12 -34 10 -19
11 -41 17 -47 13 -7 -4 -9 -3 -6 3 4 6 0 16 -9 23 -10 9 -14 29 -13 66 1 29 6
51 11 48 4 -3 8 5 9 18 0 13 3 17 6 10 2 -6 9 -10 13 -7 5 3 7 12 4 19 -4 10
2 12 19 9 14 -3 28 0 31 6 9 15 31 14 96 -3z m812 5 c2 -5 21 -11 43 -14 22
-3 41 -10 43 -16 2 -6 9 -8 14 -5 6 4 8 3 5 -3 -3 -5 3 -24 14 -42 17 -28 18
-34 5 -47 -8 -7 -21 -14 -28 -14 -18 1 -49 26 -41 33 3 4 1 7 -6 7 -7 0 -10 4
-6 9 8 14 -30 32 -50 25 -13 -5 -13 -9 -3 -23 10 -13 10 -14 -1 -4 -7 6 -21 9
-30 6 -12 -4 -13 -3 -3 5 11 7 9 10 -7 15 -26 7 -56 -24 -39 -41 9 -9 9 -12
-1 -12 -9 0 -8 -4 3 -15 8 -8 18 -15 22 -15 3 0 1 7 -6 15 -7 8 -8 15 -2 15
14 0 33 -26 25 -34 -4 -4 0 -4 9 -1 10 4 15 13 11 23 -4 14 -3 14 5 3 6 -8 8
-21 5 -29 -5 -11 -1 -13 17 -7 12 4 25 3 29 -2 3 -5 23 -14 44 -20 32 -9 38
-9 47 5 5 10 10 12 10 5 0 -6 -4 -14 -10 -18 -5 -3 -6 -13 -3 -21 5 -13 7 -13
15 -2 5 8 7 -18 6 -65 -1 -43 -6 -81 -12 -84 -5 -4 -6 -1 0 8 5 9 -3 7 -21 -5
-54 -36 -85 -47 -105 -41 -11 3 -38 7 -60 7 -23 0 -39 3 -36 6 3 2 -11 13 -32
23 -37 19 -41 26 -45 84 -1 21 2 29 12 27 7 -1 19 3 27 9 11 9 14 7 14 -10 0
-11 4 -21 10 -21 5 0 7 -8 3 -17 -3 -10 -3 -15 2 -11 4 4 15 -3 25 -15 13 -16
29 -22 58 -22 48 0 95 23 87 42 -2 8 0 11 5 8 6 -3 10 -1 10 4 0 11 -12 15
-40 12 -8 -1 -4 5 10 13 l25 15 -28 1 c-16 0 -26 4 -22 10 8 13 -1 13 -26 -1
-11 -5 -17 -14 -14 -19 3 -6 -1 -7 -10 -3 -13 5 -14 7 -3 14 10 7 10 9 -2 10
-10 0 -8 3 5 9 17 8 16 9 -10 11 -16 1 -40 1 -52 0 -13 -1 -23 2 -23 7 0 6
-12 18 -27 27 -23 16 -25 16 -20 1 4 -9 2 -16 -3 -16 -5 0 -7 30 -5 68 2 37 5
75 5 84 1 10 5 20 11 23 5 4 6 -2 2 -12 -5 -15 -2 -14 19 5 13 12 28 19 31 15
4 -3 7 -1 7 6 0 8 7 10 19 6 11 -3 22 -1 26 5 8 12 42 13 47 1z m-6268 -12 c3
-3 6 -37 8 -76 l2 -71 76 -4 c41 -3 84 -1 95 3 11 4 14 8 7 8 -8 1 -10 6 -5
13 4 7 8 33 9 58 2 58 10 77 35 75 33 -2 38 -17 39 -125 2 -214 1 -245 -16
-266 -8 -10 -13 -13 -9 -6 4 7 0 12 -9 12 -9 0 -16 -6 -16 -12 0 -7 -5 -5 -11
5 -6 10 -11 52 -12 92 0 41 -4 72 -9 69 -4 -3 -8 -2 -8 3 0 12 -147 10 -159
-2 -6 -6 -11 -44 -13 -85 -3 -70 -4 -75 -26 -76 -12 -1 -25 3 -29 9 -8 12 -8
361 0 374 6 10 42 11 51 2z m817 -136 c-1 -100 3 -133 15 -153 9 -15 13 -18 9
-6 -4 16 -3 17 9 6 9 -6 15 -15 14 -18 -2 -20 3 -25 12 -12 8 13 10 12 10 -2
0 -33 55 -22 95 18 l36 36 -2 131 -1 131 25 7 c16 4 30 2 36 -5 11 -14 20
-266 9 -259 -5 2 -8 -8 -8 -23 0 -15 -7 -32 -16 -38 -8 -6 -16 -20 -18 -31 -1
-10 -9 -21 -17 -23 -11 -3 -11 -1 1 7 18 13 1 14 -19 2 -11 -7 -10 -11 5 -20
15 -8 16 -10 4 -11 -9 0 -21 5 -27 11 -8 8 -17 8 -33 -1 -26 -14 -134 -4 -125
11 4 5 0 9 -8 9 -20 0 -63 52 -59 72 3 13 -1 16 -13 11 -15 -5 -16 -3 -6 16 8
14 11 67 10 144 -1 120 -1 122 22 128 13 3 28 3 33 -2 4 -4 8 -65 7 -136z
m3640 81 c-11 -15 -21 -24 -21 -20 0 12 33 57 37 52 3 -3 -4 -17 -16 -32z
m-2913 -9 c-3 -3 -9 2 -12 12 -6 14 -5 15 5 6 7 -7 10 -15 7 -18z m3932 -15
c0 -5 -5 -10 -11 -10 -5 0 -7 5 -4 10 3 6 8 10 11 10 2 0 4 -4 4 -10z m-3775
-18 c-3 -3 -11 0 -18 7 -9 10 -8 11 6 5 10 -3 15 -9 12 -12z m-868 -135 c-2
-23 -3 -1 -3 48 0 50 1 68 3 42 2 -26 2 -67 0 -90z m973 103 c0 -5 -4 -10 -10
-10 -5 0 -10 5 -10 10 0 6 5 10 10 10 6 0 10 -4 10 -10z m4530 0 c0 -5 -8 -10
-17 -10 -15 0 -16 2 -3 10 19 12 20 12 20 0z m-4873 -32 c-3 -8 -6 -5 -6 6 -1
11 2 17 5 13 3 -3 4 -12 1 -19z m2494 -25 c13 -16 12 -17 -3 -4 -17 13 -22 21
-14 21 2 0 10 -8 17 -17z m1374 -23 c3 -5 2 -10 -4 -10 -5 0 -13 5 -16 10 -3
6 -2 10 4 10 5 0 13 -4 16 -10z m812 4 c-3 -3 -12 -4 -19 -1 -8 3 -5 6 6 6 11
1 17 -2 13 -5z m-5280 -46 c-3 -8 -6 -5 -6 6 -1 11 2 17 5 13 3 -3 4 -12 1
-19z m4403 18 c0 -2 -9 -6 -20 -9 -11 -3 -18 -1 -14 4 5 9 34 13 34 5z m-3475
-36 c-3 -5 -12 -10 -18 -10 -7 0 -6 4 3 10 19 12 23 12 15 0z m3422 -12 c-3
-8 -6 -5 -6 6 -1 11 2 17 5 13 3 -3 4 -12 1 -19z m243 12 c0 -5 -2 -10 -4 -10
-3 0 -8 5 -11 10 -3 6 -1 10 4 10 6 0 11 -4 11 -10z m-4541 -21 c-22 -14 -33
-10 -19 6 7 8 17 12 22 9 6 -4 5 -10 -3 -15z m752 11 c10 -6 19 -16 19 -23 0
-8 -3 -9 -8 -1 -4 6 -16 16 -27 22 -25 14 -11 16 16 2z m2339 -25 c0 -5 -5 -3
-10 5 -5 8 -10 20 -10 25 0 6 5 3 10 -5 5 -8 10 -19 10 -25z m1217 -27 c-3 -7
-5 -2 -5 12 0 14 2 19 5 13 2 -7 2 -19 0 -25z m-4110 0 c-3 -8 -6 -5 -6 6 -1
11 2 17 5 13 3 -3 4 -12 1 -19z m4487 6 c3 -8 2 -12 -4 -9 -6 3 -10 10 -10 16
0 14 7 11 14 -7z m659 -1 c-7 -2 -19 -2 -25 0 -7 3 -2 5 12 5 14 0 19 -2 13
-5z m-5473 -33 c25 -25 25 -29 1 -23 -11 3 -21 13 -24 24 -6 24 -2 24 23 -1z
m4790 10 c0 -5 -5 -10 -11 -10 -5 0 -7 5 -4 10 3 6 8 10 11 10 2 0 4 -4 4 -10z
m-4833 -22 c-3 -8 -6 -5 -6 6 -1 11 2 17 5 13 3 -3 4 -12 1 -19z m5388 -8 c-3
-5 -16 -15 -28 -21 -22 -12 -22 -12 -3 10 19 21 43 30 31 11z m212 -11 c-9 -6
-14 -15 -11 -21 4 -7 2 -8 -5 -4 -14 9 3 36 23 36 6 0 3 -5 -7 -11z m48 1 c-3
-5 -12 -10 -18 -10 -7 0 -6 4 3 10 19 12 23 12 15 0z m-5411 -8 c3 -5 -1 -9
-9 -9 -8 0 -12 4 -9 9 3 4 7 8 9 8 2 0 6 -4 9 -8z m3601 -10 c-3 -3 -11 0 -18
7 -9 10 -8 11 6 5 10 -3 15 -9 12 -12z m-3785 -2 c0 -5 -2 -10 -4 -10 -3 0 -8
5 -11 10 -3 6 -1 10 4 10 6 0 11 -4 11 -10z m1815 -8 c-3 -3 -11 0 -18 7 -9
10 -8 11 6 5 10 -3 15 -9 12 -12z m2128 11 c-7 -2 -19 -2 -25 0 -7 3 -2 5 12
5 14 0 19 -2 13 -5z"/>
<path d="M3047 4997 c-24 -8 -26 -11 -15 -25 12 -14 10 -14 -11 -3 -15 8 -21
9 -17 2 4 -6 0 -11 -9 -11 -42 0 -187 -192 -168 -223 4 -6 1 -7 -7 -2 -10 6
-12 4 -7 -9 4 -9 3 -15 -2 -12 -4 3 -15 -16 -24 -42 -8 -26 -18 -56 -22 -67
-6 -16 -5 -17 4 -5 6 9 11 10 11 3 0 -6 -7 -19 -16 -28 -9 -9 -18 -33 -19 -53
-1 -20 -8 -57 -15 -81 -13 -48 -16 -353 -4 -373 4 -7 7 -30 5 -51 -1 -25 2
-36 8 -32 6 3 8 0 5 -8 -8 -21 26 -198 37 -191 5 3 9 -9 9 -26 0 -37 59 -152
73 -143 6 4 8 0 4 -10 -3 -9 1 -21 11 -29 16 -12 16 -11 3 7 -8 11 -1 7 15
-10 16 -16 28 -33 27 -37 -2 -5 3 -8 11 -8 7 0 22 -11 32 -25 10 -14 25 -23
32 -20 7 3 11 1 8 -4 -3 -5 1 -12 10 -15 10 -4 13 -2 8 7 -6 9 -4 9 8 -1 8 -7
23 -10 31 -6 9 3 23 -3 34 -15 14 -17 29 -21 78 -21 64 0 140 21 128 35 -5 4
0 5 10 2 10 -4 16 -3 13 2 -3 5 1 12 10 15 9 4 14 9 11 12 -3 3 -18 -1 -34
-10 -22 -11 -30 -12 -30 -3 0 7 7 13 16 14 9 1 28 4 44 7 15 2 25 0 21 -5 -3
-5 -1 -9 4 -9 15 0 64 58 58 68 -3 6 1 13 10 16 10 4 13 2 8 -6 -4 -7 -3 -8 4
-4 7 4 12 14 12 22 0 8 7 17 15 20 9 4 13 16 11 35 -2 16 0 26 5 24 12 -8 41
26 35 41 -3 8 -1 14 4 14 5 0 12 20 16 45 4 28 10 42 17 38 6 -4 8 0 4 10 -4
10 -2 17 5 17 7 0 8 12 4 33 -4 24 -3 28 5 17 8 -12 9 -8 5 16 -3 17 0 36 6
42 6 6 12 63 14 134 2 68 6 162 9 210 3 57 1 89 -6 94 -8 4 -7 9 2 15 8 5 9 9
3 9 -6 0 -11 12 -11 28 0 15 -6 50 -12 77 -7 28 -13 60 -13 72 0 14 -4 20 -11
16 -6 -4 -8 0 -4 10 8 20 -27 120 -38 109 -4 -4 -5 -2 -2 4 9 16 -13 69 -36
83 -11 8 -16 8 -12 2 3 -6 1 -11 -4 -11 -14 0 -14 13 1 28 9 9 9 12 -1 12 -7
0 -9 5 -6 10 3 6 1 10 -4 10 -6 0 -11 6 -11 14 0 8 -5 18 -12 22 -6 4 -8 3 -5
-2 3 -5 -3 -10 -13 -10 -14 0 -16 4 -9 13 14 16 1 36 -18 29 -8 -3 -11 -2 -8
3 10 17 -83 73 -108 66 -17 -5 -19 -4 -7 4 13 9 12 11 -5 13 -67 6 -194 3
-218 -5z m200 -3 c-3 -3 -12 -4 -19 -1 -8 3 -5 6 6 6 11 1 17 -2 13 -5z m-157
-14 c11 -8 7 -9 -15 -4 -37 8 -45 14 -19 14 10 0 26 -5 34 -10z m410 -223 c0
-5 -4 -5 -10 -2 -5 3 -10 14 -10 23 0 15 2 15 10 2 5 -8 10 -19 10 -23z m-709
-210 c-10 -9 -11 -8 -5 6 3 10 9 15 12 12 3 -3 0 -11 -7 -18z m-34 -109 c-3
-7 -5 -2 -5 12 0 14 2 19 5 13 2 -7 2 -19 0 -25z m0 -420 c-3 -8 -6 -5 -6 6
-1 11 2 17 5 13 3 -3 4 -12 1 -19z m10 -130 c-3 -8 -6 -5 -6 6 -1 11 2 17 5
13 3 -3 4 -12 1 -19z m770 -80 c-3 -8 -6 -5 -6 6 -1 11 2 17 5 13 3 -3 4 -12
1 -19z m-679 -133 c-1 -20 -4 -31 -8 -25 -7 11 -2 60 6 60 2 0 3 -16 2 -35z
m562 -129 c0 -3 -4 -8 -10 -11 -5 -3 -10 -1 -10 4 0 6 5 11 10 11 6 0 10 -2
10 -4z"/>
<path d="M3496 3643 c-6 -14 -5 -15 5 -6 7 7 10 15 7 18 -3 3 -9 -2 -12 -12z"/>
<path d="M3065 3450 c3 -5 11 -10 16 -10 6 0 7 5 4 10 -3 6 -11 10 -16 10 -6
0 -7 -4 -4 -10z"/>
<path d="M5470 4276 c0 -2 8 -10 18 -17 15 -13 16 -12 3 4 -13 16 -21 21 -21
13z"/>
<path d="M6508 5003 c7 -3 16 -2 19 1 4 3 -2 6 -13 5 -11 0 -14 -3 -6 -6z"/>
<path d="M6210 4675 c-7 -9 -8 -15 -2 -15 5 0 12 7 16 15 3 8 4 15 2 15 -2 0
-9 -7 -16 -15z"/>
<path d="M6130 4201 c0 -5 7 -12 16 -15 14 -5 15 -4 4 9 -14 17 -20 19 -20 6z"/>
<path d="M7005 3510 c-3 -5 -2 -10 4 -10 5 0 13 5 16 10 3 6 2 10 -4 10 -5 0
-13 -4 -16 -10z"/>
<path d="M1055 4971 c3 -6 1 -11 -4 -11 -8 0 -11 -96 -11 -300 l0 -300 23 -1
c21 -1 21 -1 -3 -8 -22 -7 -20 -9 20 -14 57 -9 230 -5 230 4 0 4 10 5 23 2 18
-4 19 -3 7 7 -13 9 -12 10 5 7 24 -4 78 20 70 32 -6 10 19 34 27 26 3 -3 11 2
19 12 12 15 12 16 -1 8 -9 -5 -8 0 4 13 11 12 15 22 11 22 -4 0 1 8 13 18 50
44 70 215 33 283 -11 20 -17 40 -14 43 4 3 1 6 -5 6 -7 0 -9 7 -5 18 3 9 2 14
-2 9 -5 -4 -15 7 -22 24 -9 22 -18 29 -29 25 -11 -4 -15 -2 -11 7 3 9 -3 13
-17 13 -14 -1 -21 5 -21 17 0 13 -12 23 -35 31 -46 16 -315 22 -305 7z m252
-17 c-3 -3 -12 -4 -19 -1 -8 3 -5 6 6 6 11 1 17 -2 13 -5z m160 -89 c5 -4 2
-5 -6 0 -11 6 -13 4 -8 -8 3 -9 2 -19 -2 -22 -5 -2 -11 6 -13 19 -5 24 12 30
29 11z m14 -342 c-12 -20 -14 -14 -5 12 4 9 9 14 11 11 3 -2 0 -13 -6 -23z
m20 -6 c-10 -9 -11 -8 -5 6 3 10 9 15 12 12 3 -3 0 -11 -7 -18z m-101 -137
c-8 -5 -19 -10 -25 -10 -5 0 -3 5 5 10 8 5 20 10 25 10 6 0 3 -5 -5 -10z
m-137 -27 c-13 -2 -33 -2 -45 0 -13 2 -3 4 22 4 25 0 35 -2 23 -4z"/>
<path d="M1400 4930 c0 -5 5 -10 10 -10 6 0 10 5 10 10 0 6 -4 10 -10 10 -5 0
-10 -4 -10 -10z"/>
<path d="M1052 4227 c-10 -12 -12 -101 -10 -388 l3 -372 135 1 c195 1 183 -1
175 20 -5 14 -4 15 6 5 16 -16 33 -17 23 -1 -4 6 -3 8 3 5 15 -10 73 22 73 39
0 8 6 14 13 12 19 -4 85 64 79 81 -3 8 0 11 6 7 6 -4 16 4 23 16 12 22 11 22
-7 8 -11 -8 -8 -2 7 15 14 17 26 43 27 59 1 17 7 33 13 37 8 4 9 40 6 110 -3
57 -6 105 -6 107 -1 1 -9 2 -18 2 -14 0 -15 2 -4 9 11 7 8 18 -14 55 -28 48
-49 70 -38 39 7 -19 5 -18 -17 11 -10 13 -10 17 -2 12 24 -14 12 7 -20 34 -18
16 -38 25 -46 22 -9 -3 -13 -1 -9 5 8 12 -41 37 -67 34 -10 -2 -16 1 -13 7 8
11 8 11 -163 18 -123 5 -148 4 -158 -9z m353 -37 c-3 -5 -1 -10 6 -10 7 0 10
-2 7 -5 -8 -9 -38 6 -32 16 3 5 10 9 15 9 6 0 7 -4 4 -10z m95 -604 c0 -2 -7
-7 -16 -10 -8 -3 -12 -2 -9 4 6 10 25 14 25 6z m-187 -113 c-7 -2 -19 -2 -25
0 -7 3 -2 5 12 5 14 0 19 -2 13 -5z"/>
<path d="M3121 3001 c-9 -6 -10 -11 -2 -15 13 -9 5 -26 -12 -26 -8 0 -8 3 1 9
10 6 8 10 -8 14 -41 11 -71 -25 -86 -101 -4 -21 -3 -32 5 -32 6 0 11 -5 11
-11 0 -5 -4 -7 -10 -4 -13 8 -13 -2 2 -28 7 -12 13 -28 14 -35 5 -31 94 -77
102 -53 2 6 14 8 28 5 18 -5 24 -2 24 10 0 9 6 13 14 10 15 -6 30 22 20 37 -3
5 0 8 6 7 7 -2 16 7 21 20 5 13 5 21 0 18 -10 -6 -7 48 4 75 3 9 -1 21 -10 29
-8 7 -15 19 -15 26 0 17 -46 38 -75 35 -17 -2 -17 0 -5 8 13 10 13 11 0 11 -8
0 -21 -4 -29 -9z m97 -56 c-3 -3 -9 2 -12 12 -6 14 -5 15 5 6 7 -7 10 -15 7
-18z m-178 -76 c0 -6 -4 -7 -10 -4 -5 3 -10 11 -10 16 0 6 5 7 10 4 6 -3 10
-11 10 -16z m101 -89 c5 0 9 -3 9 -7 0 -11 -66 -10 -77 1 -4 5 2 5 16 1 18 -5
22 -4 16 6 -6 9 -3 11 9 6 10 -4 22 -7 27 -7z"/>
<path d="M3280 3005 c0 -5 9 -21 20 -35 11 -14 20 -20 20 -15 0 6 -9 21 -20
35 -11 14 -20 21 -20 15z"/>
<path d="M4367 2993 c-12 -12 -8 -55 5 -47 8 5 9 2 4 -12 -14 -37 -11 -39 56
-39 77 0 101 14 75 43 -19 21 -22 32 -7 32 6 0 9 -5 8 -11 -2 -6 2 -13 9 -16
7 -3 10 3 6 16 -6 22 -15 26 -85 36 -36 5 -48 3 -48 -7 0 -10 -2 -10 -8 0 -5
7 -11 9 -15 5z"/>
<path d="M4379 2830 c-11 -6 -15 -23 -15 -57 l1 -48 70 0 c50 0 69 4 68 12 -2
7 4 10 13 6 12 -4 14 0 8 21 -4 16 -2 26 5 26 6 0 8 -7 4 -17 -4 -11 -3 -14 5
-9 17 10 15 36 -4 36 -8 0 -12 5 -9 10 6 9 -8 14 -27 11 -5 0 -8 3 -8 7 0 12
-92 14 -111 2z m71 -40 c0 -5 -5 -10 -11 -10 -5 0 -7 5 -4 10 3 6 8 10 11 10
2 0 4 -4 4 -10z"/>
<path d="M5207 2993 c-9 -2 -14 -9 -10 -15 4 -7 0 -9 -11 -5 -14 6 -15 3 -6
-13 7 -14 7 -20 0 -20 -5 0 -10 5 -10 10 0 6 -5 10 -11 10 -5 0 -8 -4 -5 -9 3
-5 0 -14 -8 -20 -30 -25 -24 -163 7 -144 6 3 7 1 3 -6 -15 -24 34 -58 97 -66
15 -2 27 0 27 5 0 6 8 10 19 10 18 0 52 30 35 30 -5 0 -1 7 10 15 21 16 37 87
25 107 -5 7 -9 23 -9 35 0 28 -40 75 -57 69 -7 -3 -13 -1 -13 4 0 10 -50 12
-83 3z m-46 -113 c5 0 9 -8 9 -17 -1 -16 -2 -16 -15 1 -8 11 -14 27 -14 35 1
13 2 12 6 -1 2 -10 9 -18 14 -18z m-1 -60 c0 -5 -2 -10 -4 -10 -3 0 -8 5 -11
10 -3 6 -1 10 4 10 6 0 11 -4 11 -10z m160 -44 c0 -2 -7 -7 -16 -10 -8 -3 -12
-2 -9 4 6 10 25 14 25 6z m5 -26 c-3 -5 -12 -10 -18 -10 -7 0 -6 4 3 10 19 12
23 12 15 0z"/>
</g>
</svg>
