<?xml version="1.0" standalone="no"?>
<!DOCTYPE svg PUBLIC "-//W3C//DTD SVG 20010904//EN"
 "http://www.w3.org/TR/2001/REC-SVG-20010904/DTD/svg10.dtd">
<svg version="1.0" xmlns="http://www.w3.org/2000/svg"
 width="736.000000pt" height="736.000000pt" viewBox="0 0 736.000000 736.000000"
 preserveAspectRatio="xMidYMid meet">

<g transform="translate(0.000000,736.000000) scale(0.100000,-0.100000)"
fill="#000000" stroke="none">
<path d="M2856 5015 c-357 -74 -644 -362 -712 -713 -29 -151 -15 -351 34 -492
95 -272 342 -497 632 -576 95 -26 347 -26 450 0 159 40 315 132 431 253 94 99
142 172 189 287 45 109 59 171 67 291 28 432 -255 821 -685 940 -81 23 -317
29 -406 10z m333 -91 c262 -142 395 -658 295 -1142 -45 -220 -156 -398 -288
-462 -98 -47 -235 -47 -328 1 -166 85 -280 333 -309 672 -30 357 78 746 244
881 87 70 137 87 248 82 72 -3 95 -8 138 -32z"/>
<path d="M4682 5010 c-29 -4 -81 -18 -115 -31 -248 -91 -373 -275 -340 -502
15 -106 51 -178 126 -251 83 -81 175 -131 422 -232 259 -105 317 -135 386
-204 46 -46 58 -66 73 -118 19 -71 13 -130 -23 -200 -53 -102 -182 -162 -351
-162 -236 0 -415 123 -525 363 -18 40 -39 91 -46 115 -11 37 -16 42 -41 42
l-28 0 0 -239 0 -240 55 -20 c158 -59 394 -101 575 -101 275 0 476 80 584 234
68 98 88 156 94 271 8 186 -38 306 -162 422 -93 86 -183 134 -430 228 -231 88
-303 123 -361 176 -51 47 -75 93 -75 146 0 97 51 173 143 214 44 20 68 23 157
22 256 -1 418 -128 485 -378 17 -61 20 -65 47 -65 l28 0 -2 202 -3 202 -50 19
c-196 73 -462 110 -623 87z"/>
<path d="M6249 5009 c-158 -23 -326 -128 -402 -250 -79 -130 -73 -330 14 -462
73 -111 187 -182 483 -302 313 -127 395 -179 442 -280 27 -56 32 -148 12 -206
-41 -122 -186 -199 -373 -199 -252 0 -449 157 -554 442 -23 64 -30 73 -54 76
l-27 3 2 -242 3 -242 40 -14 c252 -89 579 -126 785 -89 230 41 391 169 455
361 25 73 27 90 22 190 -4 85 -10 123 -29 170 -79 193 -225 301 -573 424 -251
89 -392 177 -415 260 -21 77 -6 152 42 207 123 140 446 116 602 -46 43 -44
104 -143 116 -190 33 -128 29 -120 61 -120 l29 0 -2 202 -3 202 -50 19 c-198
74 -462 110 -626 86z"/>
<path d="M300 4992 c-5 -2 -10 -16 -10 -32 0 -26 2 -28 57 -32 101 -9 93 62
93 -799 l0 -748 -22 -26 c-18 -21 -35 -27 -81 -32 -58 -6 -58 -6 -55 -37 l3
-31 525 1 525 0 104 27 c208 54 347 150 414 286 30 63 32 72 32 181 0 104 -3
121 -27 173 -15 31 -42 75 -60 97 -65 79 -196 147 -333 174 -67 13 -69 14 -42
25 16 6 33 11 39 11 33 0 150 73 210 131 78 76 108 135 115 226 17 198 -129
350 -378 393 -59 10 -1081 21 -1109 12z m881 -94 c76 -35 129 -85 165 -155 27
-53 29 -67 29 -163 0 -96 -2 -110 -29 -163 -35 -68 -98 -130 -164 -160 -40
-19 -70 -22 -199 -25 l-153 -4 0 344 c0 190 3 348 8 352 4 5 70 6 147 4 125
-3 146 -6 196 -30z m22 -758 c150 -47 250 -179 264 -352 16 -184 -77 -352
-237 -427 -51 -24 -66 -26 -227 -29 l-173 -4 0 416 0 416 154 0 c126 0 166 -4
219 -20z"/>
<path d="M2945 2915 c-80 -28 -122 -109 -112 -217 9 -97 61 -159 147 -173 162
-27 267 107 219 280 -28 98 -144 149 -254 110z m118 -56 c33 -15 48 -44 54
-104 8 -73 -3 -118 -34 -149 -44 -45 -119 -30 -148 29 -19 42 -19 138 1 180
23 49 75 68 127 44z"/>
<path d="M5095 2916 c-87 -38 -130 -170 -91 -279 18 -50 42 -76 91 -98 69 -32
164 -19 219 29 48 43 69 149 46 234 -14 48 -55 97 -97 114 -41 18 -129 17
-168 0z m137 -57 c47 -25 65 -160 30 -229 -31 -63 -126 -67 -162 -7 -39 63
-22 207 27 236 24 14 79 14 105 0z"/>
<path d="M5955 2915 c-47 -22 -65 -40 -75 -76 -20 -70 12 -107 121 -139 37
-11 75 -28 84 -37 22 -21 15 -52 -16 -76 -24 -17 -31 -18 -64 -7 -26 8 -41 21
-50 42 -9 24 -19 31 -43 33 -44 4 -55 -14 -34 -55 36 -72 152 -101 236 -60 71
34 94 92 59 151 -18 30 -46 46 -127 73 -71 24 -86 34 -86 59 0 29 10 43 38 50
34 8 78 -10 90 -38 9 -20 19 -25 48 -25 34 0 36 1 29 28 -19 76 -127 116 -210
77z"/>
<path d="M6771 2913 c-18 -9 -42 -31 -52 -47 -45 -74 -9 -131 106 -165 91 -27
118 -55 92 -95 -31 -47 -107 -40 -133 13 -15 29 -32 41 -62 41 -31 0 -37 -22
-18 -62 25 -52 68 -72 153 -73 83 0 116 18 147 79 15 31 16 42 6 65 -18 44
-49 66 -125 91 -88 28 -113 50 -98 83 22 47 102 42 125 -8 9 -19 19 -25 44
-25 41 0 46 7 28 48 -25 62 -140 91 -213 55z"/>
<path d="M370 2725 l0 -196 38 3 37 3 3 83 3 82 79 0 79 0 3 -82 3 -83 38 -3
37 -3 0 195 0 196 -40 0 -40 0 0 -75 0 -75 -80 0 -79 0 -3 73 -3 72 -37 3 -38
3 0 -196z"/>
<path d="M1180 2783 c0 -157 10 -191 69 -230 46 -31 150 -32 199 -3 63 38 72
68 72 228 l0 142 -40 0 -40 0 0 -127 c0 -169 -12 -197 -86 -201 -75 -4 -78 3
-84 177 l-5 146 -42 3 -43 3 0 -138z"/>
<path d="M2095 2904 c-72 -37 -95 -81 -95 -181 0 -132 65 -193 203 -193 46 0
92 6 112 14 l35 15 0 90 0 91 -74 0 -74 0 -4 -30 c-6 -37 -3 -40 39 -40 32 0
33 -1 33 -40 l0 -40 -63 0 c-57 0 -66 3 -92 30 -27 28 -29 37 -29 103 0 52 5
79 18 99 36 55 125 59 155 7 13 -24 23 -29 54 -29 29 0 37 4 37 19 0 25 -35
68 -70 86 -39 20 -146 19 -185 -1z"/>
<path d="M4180 2725 l0 -195 108 0 c119 0 159 13 196 62 27 38 14 94 -30 123
l-31 21 29 26 c50 46 31 122 -39 149 -13 5 -71 9 -129 9 l-104 0 0 -195z m198
123 c18 -18 15 -53 -7 -72 -13 -12 -32 -16 -62 -14 l-44 3 -3 48 -3 47 53 0
c30 0 59 -5 66 -12z m11 -167 c22 -22 18 -58 -7 -78 -9 -7 -40 -13 -69 -13
l-53 0 0 55 0 55 55 0 c41 0 60 -5 74 -19z"/>
</g>
</svg>
